<svg width="14" height="17" viewBox="0 0 14 17" fill="none" xmlns="http://www.w3.org/2000/svg">
<path d="M11.3366 5.62292C11.3366 4.52635 10.901 3.47468 10.1256 2.69929C9.3502 1.92389 8.29853 1.48828 7.20196 1.48828C6.10538 1.48828 5.05372 1.92389 4.27833 2.69929C3.50293 3.47468 3.06732 4.52635 3.06732 5.62292C3.06732 10.4467 1 11.8249 1 11.8249H13.4039C13.4039 11.8249 11.3366 10.4467 11.3366 5.62292Z" stroke="#FFA31A" stroke-linecap="round" stroke-linejoin="round"/>
<path d="M8.39407 14.825C8.27292 15.0338 8.09903 15.2072 7.8898 15.3277C7.68058 15.4482 7.44337 15.5116 7.20192 15.5116C6.96047 15.5116 6.72326 15.4482 6.51404 15.3277C6.30481 15.2072 6.13092 15.0338 6.00977 14.825" stroke="#FFA31A" stroke-linecap="round" stroke-linejoin="round"/>
</svg>
