<svg width="30" height="30" viewBox="0 0 30 30" fill="none" xmlns="http://www.w3.org/2000/svg">
<path d="M8.44602 26.5054L8.45342 26.5099L8.46087 26.5143C10.4249 27.6729 12.8325 28.25 15 28.25C21.5434 28.25 28.25 23.1824 28.25 14.982C28.25 7.92771 22.5597 1.75 15.024 1.75C7.31879 1.75 1.75 8.04984 1.75 15.018C1.75 17.2754 2.40543 19.558 3.52172 21.6119L3.53603 21.6382C3.53484 21.6476 3.53207 21.6614 3.52577 21.6792L3.51527 21.7088L3.50628 21.7389L2.70228 24.431L2.69876 24.4428L2.69547 24.4546C2.48748 25.2045 2.69159 25.9784 3.24706 26.4913C3.786 26.9889 4.54514 27.1387 5.24765 26.922L7.66441 26.2031L7.68094 26.1982L7.69733 26.1928C7.73793 26.1795 7.75891 26.1788 7.76885 26.1789C7.78043 26.179 7.80517 26.1807 7.85233 26.1952C7.97258 26.2322 8.13235 26.3144 8.44602 26.5054ZM14.9581 14.7416L14.9671 14.7417H14.976C15.1359 14.7417 15.262 14.8654 15.262 15.03C15.262 15.1862 15.1343 15.3136 14.9844 15.3182C14.8122 15.3112 14.69 15.1766 14.69 15.018C14.69 14.9477 14.7186 14.8768 14.7752 14.8205C14.8312 14.7647 14.8965 14.7407 14.9581 14.7416ZM20.222 15.03C20.222 14.8654 20.3481 14.7417 20.508 14.7417C20.6679 14.7417 20.794 14.8654 20.794 15.03C20.794 15.1891 20.6615 15.3184 20.508 15.3184C20.3545 15.3184 20.222 15.1891 20.222 15.03ZM9.158 15.03C9.158 14.8654 9.28413 14.7417 9.444 14.7417C9.60388 14.7417 9.73 14.8654 9.73 15.03C9.73 15.1707 9.61386 15.311 9.4358 15.3182C9.37037 15.3161 9.30239 15.2884 9.24555 15.2315C9.18631 15.1721 9.158 15.0998 9.158 15.03Z" stroke="#1B6AE3" stroke-width="2.5"/>
</svg>
