<svg width="23" height="23" viewBox="0 0 23 23" fill="none" xmlns="http://www.w3.org/2000/svg">
<path fill-rule="evenodd" clip-rule="evenodd" d="M11.5 2.5C6.52944 2.5 2.5 6.52944 2.5 11.5C2.5 16.4706 6.52944 20.5 11.5 20.5C16.4706 20.5 20.5 16.4706 20.5 11.5C20.5 6.52944 16.4706 2.5 11.5 2.5ZM0.5 11.5C0.5 5.42487 5.42487 0.5 11.5 0.5C17.5751 0.5 22.5 5.42487 22.5 11.5C22.5 17.5751 17.5751 22.5 11.5 22.5C5.42487 22.5 0.5 17.5751 0.5 11.5ZM15.2071 7.79289C15.5976 8.18342 15.5976 8.81658 15.2071 9.20711L12.9142 11.5L15.2071 13.7929C15.5976 14.1834 15.5976 14.8166 15.2071 15.2071C14.8166 15.5976 14.1834 15.5976 13.7929 15.2071L11.5 12.9142L9.20711 15.2071C8.81658 15.5976 8.18342 15.5976 7.79289 15.2071C7.40237 14.8166 7.40237 14.1834 7.79289 13.7929L10.0858 11.5L7.79289 9.20711C7.40237 8.81658 7.40237 8.18342 7.79289 7.79289C8.18342 7.40237 8.81658 7.40237 9.20711 7.79289L11.5 10.0858L13.7929 7.79289C14.1834 7.40237 14.8166 7.40237 15.2071 7.79289Z" fill="black"/>
</svg>
