<svg width="17" height="15" viewBox="0 0 17 15" fill="none" xmlns="http://www.w3.org/2000/svg">
<path d="M14.6714 3.70239H2.51904C1.6801 3.70239 1 4.38249 1 5.22144V12.8167C1 13.6556 1.6801 14.3357 2.51904 14.3357H14.6714C15.5103 14.3357 16.1904 13.6556 16.1904 12.8167V5.22144C16.1904 4.38249 15.5103 3.70239 14.6714 3.70239Z" stroke="#FFA31A" stroke-linecap="round" stroke-linejoin="round"/>
<path d="M11.6328 14.3357V2.18335C11.6328 1.78047 11.4728 1.3941 11.1879 1.10922C10.903 0.824348 10.5166 0.664307 10.1138 0.664307H7.07568C6.67281 0.664307 6.28643 0.824348 6.00156 1.10922C5.71668 1.3941 5.55664 1.78047 5.55664 2.18335V14.3357" stroke="#FFA31A" stroke-linecap="round" stroke-linejoin="round"/>
</svg>
