<svg width="62" height="58" viewBox="0 0 62 58" fill="none" xmlns="http://www.w3.org/2000/svg">
<rect x="1" y="1" width="60" height="56" rx="9" stroke="#1B6AE3" stroke-width="2"/>
<g clip-path="url(#clip0_118_652)">
<path d="M43.0185 26.7398L32.4133 26.7393C31.945 26.7393 31.5654 27.1188 31.5654 27.5871V30.975C31.5654 31.4432 31.945 31.8228 32.4133 31.8228H38.3855C37.7315 33.52 36.5109 34.9413 34.9537 35.8444L37.5002 40.2527C41.5851 37.8902 44.0002 33.7449 44.0002 29.1046C44.0002 28.4439 43.9515 27.9716 43.8541 27.4398C43.78 27.0357 43.4292 26.7398 43.0185 26.7398Z" fill="#167EE6"/>
<path d="M31.0001 36.913C28.0775 36.913 25.526 35.3161 24.1557 32.9531L19.7476 35.4939C21.9908 39.3818 26.1932 42 31.0001 42C33.3583 42 35.5833 41.365 37.5001 40.2586V40.2525L34.9536 35.8442C33.7888 36.5198 32.4408 36.913 31.0001 36.913Z" fill="#12B347"/>
<path d="M37.5 40.2586V40.2526L34.9535 35.8442C33.7887 36.5198 32.4408 36.913 31 36.913V42C33.3581 42 35.5833 41.3651 37.5 40.2586Z" fill="#0F993E"/>
<path d="M23.087 29.0001C23.087 27.5594 23.4801 26.2117 24.1556 25.0469L19.7474 22.5061C18.6349 24.4168 18 26.6359 18 29.0001C18 31.3642 18.6349 33.5833 19.7474 35.494L24.1556 32.9532C23.4801 31.7885 23.087 30.4407 23.087 29.0001Z" fill="#FFD500"/>
<path d="M31.0001 21.087C32.906 21.087 34.6566 21.7642 36.024 22.8907C36.3614 23.1685 36.8516 23.1485 37.1607 22.8395L39.5611 20.439C39.9117 20.0884 39.8867 19.5146 39.5122 19.1897C37.2212 17.2021 34.2403 16 31.0001 16C26.1932 16 21.9908 18.6181 19.7476 22.506L24.1557 25.0468C25.526 22.6838 28.0775 21.087 31.0001 21.087Z" fill="#FF4B26"/>
<path d="M36.0239 22.8907C36.3612 23.1685 36.8516 23.1485 37.1605 22.8395L39.561 20.439C39.9115 20.0884 39.8865 19.5146 39.5121 19.1897C37.2211 17.2021 34.2402 16 31 16V21.087C32.9058 21.087 34.6565 21.7642 36.0239 22.8907Z" fill="#D93F21"/>
</g>
<defs>
<clipPath id="clip0_118_652">
<rect width="26" height="26" fill="white" transform="translate(18 16)"/>
</clipPath>
</defs>
</svg>
