<svg width="16" height="15" viewBox="0 0 16 15" fill="none" xmlns="http://www.w3.org/2000/svg">
<path d="M8 14.5C11.866 14.5 15 11.366 15 7.5C15 3.63401 11.866 0.5 8 0.5C4.13401 0.5 1 3.63401 1 7.5C1 11.366 4.13401 14.5 8 14.5Z" stroke="#FFA31A" stroke-linecap="round" stroke-linejoin="round"/>
<path d="M5.96191 5.39996C6.12649 4.93213 6.45132 4.53763 6.87888 4.28635C7.30644 4.03507 7.80914 3.94322 8.29794 4.02706C8.78673 4.1109 9.23009 4.36503 9.54947 4.74443C9.86885 5.12383 10.0437 5.60402 10.0429 6.09996C10.0429 7.49996 7.94291 8.19996 7.94291 8.19996" stroke="#FFA31A" stroke-linecap="round" stroke-linejoin="round"/>
<path d="M8 11H8.0075" stroke="#FFA31A" stroke-linecap="round" stroke-linejoin="round"/>
</svg>
