<svg width="28" height="28" viewBox="0 0 28 28" fill="none" xmlns="http://www.w3.org/2000/svg">
<path d="M14 25.25L14.0038 25.25C14.8743 25.2473 15.7018 24.8912 16.3075 24.27C16.5344 24.0373 16.7233 23.7744 16.8709 23.4916C17.1049 23.0431 17.1334 22.5823 17.0237 22.1731H21.2709C22.3639 22.1731 23.25 21.287 23.25 20.194C23.25 19.6778 23.0483 19.1821 22.688 18.8125L21.7929 19.6851L22.6879 18.8125L21.25 17.3376V12.7179C21.25 9.49325 19.7086 6.50968 16.7418 5.32365C16.6921 4.67164 16.4173 4.05145 15.9557 3.57798C15.4425 3.05168 14.7397 2.75 14 2.75C13.2603 2.75 12.5575 3.05168 12.0443 3.57798C11.583 4.05116 11.3082 4.67087 11.2583 5.32244C8.28222 6.5069 6.75 9.48559 6.75 12.7179V17.3376L5.31205 18.8125C4.95169 19.1821 4.75 19.6778 4.75 20.194C4.75 21.287 5.63605 22.1731 6.72905 22.1731H10.9736C10.8645 22.5804 10.8923 23.0392 11.1239 23.4862C11.2719 23.7718 11.462 24.0371 11.6908 24.2718C12.2977 24.8943 13.1277 25.25 14 25.25Z" stroke="#1B6AE3" stroke-width="2.5"/>
</svg>
