<svg width="15" height="15" viewBox="0 0 15 15" fill="none" xmlns="http://www.w3.org/2000/svg">
<path d="M3.1 0.5L1 3.3V13.1C1 13.4713 1.1475 13.8274 1.41005 14.0899C1.6726 14.3525 2.0287 14.5 2.4 14.5H12.2C12.5713 14.5 12.9274 14.3525 13.1899 14.0899C13.4525 13.8274 13.6 13.4713 13.6 13.1V3.3L11.5 0.5H3.1Z" stroke="#FFA31A" stroke-linecap="round" stroke-linejoin="round"/>
<path d="M1 3.30005H13.6" stroke="#FFA31A" stroke-linecap="round" stroke-linejoin="round"/>
<path d="M10.1 6.09985C10.1 6.84246 9.805 7.55465 9.2799 8.07975C8.7548 8.60485 8.04261 8.89985 7.3 8.89985C6.55739 8.89985 5.8452 8.60485 5.3201 8.07975C4.795 7.55465 4.5 6.84246 4.5 6.09985" stroke="#FFA31A" stroke-linecap="round" stroke-linejoin="round"/>
</svg>
