<svg width="16" height="15" viewBox="0 0 16 15" fill="none" xmlns="http://www.w3.org/2000/svg">
<path d="M7.99991 9.409C9.05427 9.409 9.909 8.55427 9.909 7.49991C9.909 6.44555 9.05427 5.59082 7.99991 5.59082C6.94555 5.59082 6.09082 6.44555 6.09082 7.49991C6.09082 8.55427 6.94555 9.409 7.99991 9.409Z" stroke="#FFA31A" stroke-linecap="round" stroke-linejoin="round"/>
<path d="M12.7091 9.40909C12.6244 9.60103 12.5991 9.81394 12.6365 10.0204C12.674 10.2268 12.7724 10.4173 12.9191 10.5673L12.9573 10.6055C13.0756 10.7237 13.1695 10.864 13.2335 11.0185C13.2976 11.173 13.3305 11.3387 13.3305 11.5059C13.3305 11.6732 13.2976 11.8388 13.2335 11.9933C13.1695 12.1478 13.0756 12.2882 12.9573 12.4064C12.8391 12.5247 12.6987 12.6186 12.5442 12.6826C12.3897 12.7467 12.2241 12.7796 12.0568 12.7796C11.8896 12.7796 11.7239 12.7467 11.5694 12.6826C11.4149 12.6186 11.2746 12.5247 11.1564 12.4064L11.1182 12.3682C10.9682 12.2215 10.7777 12.1231 10.5713 12.0856C10.3649 12.0482 10.1519 12.0735 9.96 12.1582C9.77178 12.2388 9.61126 12.3728 9.4982 12.5435C9.38513 12.7143 9.32445 12.9143 9.32364 13.1191V13.2273C9.32364 13.5648 9.18955 13.8885 8.95086 14.1272C8.71218 14.3659 8.38846 14.5 8.05091 14.5C7.71336 14.5 7.38964 14.3659 7.15096 14.1272C6.91227 13.8885 6.77818 13.5648 6.77818 13.2273V13.17C6.77325 12.9594 6.70508 12.7551 6.58251 12.5837C6.45994 12.4123 6.28865 12.2818 6.09091 12.2091C5.89897 12.1244 5.68606 12.0991 5.47963 12.1365C5.27319 12.174 5.0827 12.2724 4.93273 12.4191L4.89455 12.4573C4.77634 12.5756 4.63598 12.6695 4.48147 12.7335C4.32696 12.7976 4.16135 12.8305 3.99409 12.8305C3.82683 12.8305 3.66122 12.7976 3.50671 12.7335C3.35221 12.6695 3.21184 12.5756 3.09364 12.4573C2.9753 12.3391 2.88143 12.1987 2.81738 12.0442C2.75333 11.8897 2.72036 11.7241 2.72036 11.5568C2.72036 11.3896 2.75333 11.2239 2.81738 11.0694C2.88143 10.9149 2.9753 10.7746 3.09364 10.6564L3.13182 10.6182C3.27852 10.4682 3.37694 10.2777 3.41437 10.0713C3.4518 9.86485 3.42653 9.65194 3.34182 9.46C3.26115 9.27178 3.12721 9.11126 2.95648 8.9982C2.78575 8.88513 2.58568 8.82445 2.38091 8.82364H2.27273C1.93518 8.82364 1.61146 8.68955 1.37277 8.45086C1.13409 8.21218 1 7.88846 1 7.55091C1 7.21336 1.13409 6.88964 1.37277 6.65096C1.61146 6.41227 1.93518 6.27818 2.27273 6.27818H2.33C2.54063 6.27325 2.74491 6.20508 2.91628 6.08251C3.08765 5.95994 3.21818 5.78865 3.29091 5.59091C3.37562 5.39897 3.40089 5.18606 3.36346 4.97963C3.32603 4.77319 3.22761 4.5827 3.08091 4.43273L3.04273 4.39455C2.92439 4.27634 2.83052 4.13598 2.76647 3.98147C2.70242 3.82696 2.66945 3.66135 2.66945 3.49409C2.66945 3.32683 2.70242 3.16122 2.76647 3.00671C2.83052 2.85221 2.92439 2.71184 3.04273 2.59364C3.16093 2.4753 3.3013 2.38143 3.4558 2.31738C3.61031 2.25333 3.77593 2.22036 3.94318 2.22036C4.11044 2.22036 4.27605 2.25333 4.43056 2.31738C4.58507 2.38143 4.72543 2.4753 4.84364 2.59364L4.88182 2.63182C5.0318 2.77852 5.22228 2.87694 5.42872 2.91437C5.63515 2.9518 5.84806 2.92653 6.04 2.84182H6.09091C6.27913 2.76115 6.43965 2.62721 6.55271 2.45648C6.66578 2.28575 6.72646 2.08568 6.72727 1.88091V1.77273C6.72727 1.43518 6.86136 1.11146 7.10005 0.872773C7.33873 0.634091 7.66245 0.5 8 0.5C8.33755 0.5 8.66127 0.634091 8.89995 0.872773C9.13864 1.11146 9.27273 1.43518 9.27273 1.77273V1.83C9.27354 2.03477 9.33422 2.23484 9.44729 2.40557C9.56035 2.5763 9.72087 2.71024 9.90909 2.79091C10.101 2.87562 10.3139 2.90089 10.5204 2.86346C10.7268 2.82603 10.9173 2.72761 11.0673 2.58091L11.1055 2.54273C11.2237 2.42439 11.364 2.33052 11.5185 2.26647C11.673 2.20242 11.8387 2.16945 12.0059 2.16945C12.1732 2.16945 12.3388 2.20242 12.4933 2.26647C12.6478 2.33052 12.7882 2.42439 12.9064 2.54273C13.0247 2.66093 13.1186 2.8013 13.1826 2.9558C13.2467 3.11031 13.2796 3.27593 13.2796 3.44318C13.2796 3.61044 13.2467 3.77605 13.1826 3.93056C13.1186 4.08507 13.0247 4.22543 12.9064 4.34364L12.8682 4.38182C12.7215 4.5318 12.6231 4.72228 12.5856 4.92872C12.5482 5.13515 12.5735 5.34806 12.6582 5.54V5.59091C12.7388 5.77913 12.8728 5.93965 13.0435 6.05271C13.2143 6.16578 13.4143 6.22646 13.6191 6.22727H13.7273C14.0648 6.22727 14.3885 6.36136 14.6272 6.60005C14.8659 6.83873 15 7.16245 15 7.5C15 7.83755 14.8659 8.16127 14.6272 8.39995C14.3885 8.63864 14.0648 8.77273 13.7273 8.77273H13.67C13.4652 8.77354 13.2652 8.83422 13.0944 8.94729C12.9237 9.06035 12.7898 9.22087 12.7091 9.40909V9.40909Z" stroke="#FFA31A" stroke-linecap="round" stroke-linejoin="round"/>
</svg>
