<svg width="14" height="11" viewBox="0 0 14 11" fill="none" xmlns="http://www.w3.org/2000/svg">
<path fill-rule="evenodd" clip-rule="evenodd" d="M0 0.550049C0 0.273906 0.223858 0.0500488 0.5 0.0500488H12.6C12.8761 0.0500488 13.1 0.273906 13.1 0.550049V3.30005C13.1 3.57619 12.8761 3.80005 12.6 3.80005H12V10.45C12 10.7262 11.7761 10.95 11.5 10.95H1.6C1.32386 10.95 1.1 10.7262 1.1 10.45V3.80005H0.5C0.223858 3.80005 0 3.57619 0 3.30005V0.550049ZM11 9.95005V3.80005H2.1V9.95005H11ZM12.1 2.80005H11.5H1.6H1V1.05005H12.1V2.80005ZM5.45 5.00005C5.17386 5.00005 4.95 5.22391 4.95 5.50005C4.95 5.77619 5.17386 6.00005 5.45 6.00005H7.65C7.92614 6.00005 8.15 5.77619 8.15 5.50005C8.15 5.22391 7.92614 5.00005 7.65 5.00005H5.45Z" fill="#FFA31A"/>
</svg>
