<svg width="16" height="15" viewBox="0 0 16 15" fill="none" xmlns="http://www.w3.org/2000/svg">
<path d="M2.4 1.19995H13.6C13.9713 1.19995 14.3274 1.34745 14.5899 1.61C14.8525 1.87255 15 2.22865 15 2.59995V6.79995C15 8.65647 14.2625 10.4369 12.9497 11.7497C11.637 13.0625 9.85652 13.8 8 13.8C7.08075 13.8 6.17049 13.6189 5.32122 13.2671C4.47194 12.9153 3.70026 12.3997 3.05025 11.7497C1.7375 10.4369 1 8.65647 1 6.79995V2.59995C1 2.22865 1.1475 1.87255 1.41005 1.61C1.6726 1.34745 2.0287 1.19995 2.4 1.19995V1.19995Z" stroke="#FFA31A" stroke-linecap="round" stroke-linejoin="round"/>
<path d="M5.20117 6.1001L8.00117 8.9001L10.8012 6.1001" stroke="#FFA31A" stroke-linecap="round" stroke-linejoin="round"/>
</svg>
