<svg width="19" height="22" viewBox="0 0 19 22" fill="none" xmlns="http://www.w3.org/2000/svg">
<path fill-rule="evenodd" clip-rule="evenodd" d="M6.5 0C5.39543 0 4.5 0.89543 4.5 2H3.5C2.70435 2 1.94129 2.31607 1.37868 2.87868C0.81607 3.44129 0.5 4.20435 0.5 5V19C0.5 19.7957 0.81607 20.5587 1.37868 21.1213C1.94129 21.6839 2.70435 22 3.5 22H15.5C16.2957 22 17.0587 21.6839 17.6213 21.1213C18.1839 20.5587 18.5 19.7957 18.5 19V5C18.5 4.20435 18.1839 3.44129 17.6213 2.87868C17.0587 2.31607 16.2956 2 15.5 2H14.5C14.5 0.89543 13.6046 0 12.5 0H6.5ZM14.5 4C14.5 5.10457 13.6046 6 12.5 6H6.5C5.39543 6 4.5 5.10457 4.5 4H3.5C3.23478 4 2.98043 4.10536 2.79289 4.29289C2.60536 4.48043 2.5 4.73478 2.5 5V19C2.5 19.2652 2.60536 19.5196 2.79289 19.7071C2.98043 19.8946 3.23478 20 3.5 20H15.5C15.7652 20 16.0196 19.8946 16.2071 19.7071C16.3946 19.5196 16.5 19.2652 16.5 19V5C16.5 4.73478 16.3946 4.48043 16.2071 4.29289C16.0196 4.10536 15.7652 4 15.5 4H14.5ZM6.5 3V4H12.5V3V2H6.5V3Z" fill="#0F993E"/>
</svg>
