<svg width="37" height="37" viewBox="0 0 37 37" fill="none" xmlns="http://www.w3.org/2000/svg">
<ellipse cx="18.5" cy="18.042" rx="18.5" ry="18.042" fill="#5193E0"/>
<path d="M25.6891 13.2377C25.2738 12.8453 24.7806 12.534 24.2377 12.3217C23.6949 12.1093 23.1131 12 22.5255 12C21.9379 12 21.3561 12.1093 20.8133 12.3217C20.2704 12.534 19.7772 12.8453 19.3619 13.2377L18.4998 14.0517L17.6377 13.2377C16.7987 12.4455 15.6607 12.0004 14.4741 12.0004C13.2875 12.0004 12.1495 12.4455 11.3104 13.2377C10.4714 14.0299 10 15.1044 10 16.2248C10 17.3452 10.4714 18.4196 11.3104 19.2119L12.1725 20.0258L18.4998 26L24.8271 20.0258L25.6891 19.2119C26.1047 18.8197 26.4344 18.354 26.6593 17.8415C26.8842 17.3289 27 16.7796 27 16.2248C27 15.67 26.8842 15.1206 26.6593 14.6081C26.4344 14.0956 26.1047 13.6299 25.6891 13.2377Z" fill="#5193E0" stroke="white" stroke-width="2" stroke-linecap="round" stroke-linejoin="round"/>
</svg>
