<svg width="21" height="19" viewBox="0 0 21 19" fill="none" xmlns="http://www.w3.org/2000/svg">
<path d="M18.9335 4.39364C15.9268 -0.000145243 9.7882 -1.3064 5.02761 1.42487C0.392304 4.15614 -1.11104 10.0937 1.89565 14.4875L2.1462 14.8437L1.14398 18.4062L4.90233 17.4562L5.27817 17.6937C6.90679 18.525 8.66069 19 10.4146 19C12.2938 19 14.173 18.525 15.8016 17.575C20.4369 14.725 21.8149 8.90617 18.9335 4.39364ZM16.3027 13.5375C15.8016 14.25 15.1752 14.725 14.2982 14.8437C13.7971 14.8437 13.1707 15.0812 10.6651 14.1312C8.53541 13.1812 6.78151 11.6374 5.52873 9.85618C4.77705 9.02492 4.40122 7.95617 4.27594 6.88741C4.27594 5.9374 4.65178 5.10614 5.27817 4.51239C5.52873 4.27489 5.77928 4.15614 6.02984 4.15614H6.65623C6.90679 4.15614 7.15735 4.15614 7.28263 4.63114C7.53318 5.2249 8.15958 6.64991 8.15958 6.76866C8.28486 6.88741 8.28486 7.12491 8.15958 7.24366C8.28486 7.48116 8.15958 7.71866 8.0343 7.83742C7.90902 7.95617 7.78374 8.19367 7.65846 8.31242C7.40791 8.43117 7.28263 8.66867 7.40791 8.90617C7.90902 9.61868 8.53541 10.3312 9.16181 10.9249C9.91348 11.5187 10.6651 11.9937 11.5421 12.3499C11.7927 12.4687 12.0432 12.4687 12.1685 12.2312C12.2938 11.9937 12.9202 11.3999 13.1707 11.1624C13.4213 10.9249 13.5466 10.9249 13.7971 11.0437L15.8016 11.9937C16.0521 12.1124 16.3027 12.2312 16.428 12.3499C16.5532 12.7062 16.5532 13.1812 16.3027 13.5375Z" fill="#2B7EDF"/>
</svg>
