<svg width="21" height="19" viewBox="0 0 21 19" fill="none" xmlns="http://www.w3.org/2000/svg">
<path d="M13.754 9.5C13.754 10.2874 13.4231 11.0425 12.8341 11.5992C12.2451 12.156 11.4463 12.4688 10.6134 12.4688C9.78044 12.4688 8.98162 12.156 8.39265 11.5992C7.80367 11.0425 7.47279 10.2874 7.47279 9.5C7.47279 9.33078 7.49163 9.16552 7.52408 9.00521H6.42592V12.9606C6.42592 13.2357 6.66147 13.4583 6.95249 13.4583H14.2753C14.4148 13.4581 14.5485 13.4055 14.647 13.3122C14.7455 13.2189 14.8008 13.0924 14.8008 12.9606V9.00521H13.7027C13.7351 9.16552 13.754 9.33078 13.754 9.5ZM10.6134 11.4792C10.8884 11.4791 11.1607 11.4278 11.4148 11.3283C11.6688 11.2287 11.8997 11.0829 12.0941 10.899C12.2885 10.7151 12.4427 10.4968 12.5479 10.2566C12.6531 10.0164 12.7072 9.75898 12.7071 9.49901C12.707 9.23904 12.6528 8.98162 12.5475 8.74146C12.4422 8.50131 12.2879 8.28311 12.0933 8.09932C11.8988 7.91554 11.6679 7.76977 11.4138 7.67035C11.1597 7.57092 10.8874 7.51978 10.6123 7.51984C10.0569 7.51997 9.52428 7.72867 9.13163 8.10002C8.73898 8.47137 8.51847 8.97496 8.5186 9.5C8.51874 10.025 8.73952 10.5285 9.13237 10.8997C9.52521 11.2709 10.058 11.4793 10.6134 11.4792ZM13.1259 7.42188H14.381C14.4644 7.42188 14.5444 7.39063 14.6035 7.33498C14.6626 7.27934 14.6959 7.20383 14.6962 7.125V5.93849C14.6962 5.85949 14.663 5.78373 14.6039 5.72787C14.5448 5.67201 14.4646 5.64062 14.381 5.64062H13.1259C13.0423 5.64062 12.9621 5.67201 12.903 5.72787C12.844 5.78373 12.8108 5.85949 12.8108 5.93849V7.125C12.8118 7.28828 12.9531 7.42188 13.1259 7.42188ZM10.6134 0C7.94798 0 5.39175 1.00089 3.50703 2.78249C1.6223 4.56408 0.563477 6.98044 0.563477 9.5C0.563477 12.0196 1.6223 14.4359 3.50703 16.2175C5.39175 17.9991 7.94798 19 10.6134 19C11.9332 19 13.24 18.7543 14.4593 18.2769C15.6786 17.7994 16.7865 17.0997 17.7197 16.2175C18.653 15.3354 19.3932 14.2881 19.8983 13.1355C20.4033 11.9829 20.6633 10.7476 20.6633 9.5C20.6633 8.25244 20.4033 7.0171 19.8983 5.86451C19.3932 4.71191 18.653 3.66464 17.7197 2.78249C16.7865 1.90033 15.6786 1.20056 14.4593 0.723144C13.24 0.245725 11.9332 0 10.6134 0ZM15.8477 13.3485C15.8477 13.9531 15.3243 14.4479 14.6846 14.4479H6.54212C5.90249 14.4479 5.37906 13.9531 5.37906 13.3485V5.65151C5.37906 5.04688 5.90249 4.55208 6.54212 4.55208H14.6846C15.3243 4.55208 15.8477 5.04688 15.8477 5.65151V13.3485Z" fill="#2B7EDF"/>
</svg>
