<svg width="21" height="19" viewBox="0 0 21 19" fill="none" xmlns="http://www.w3.org/2000/svg">
<path d="M10.9503 0C5.40042 0 0.900391 4.25379 0.900391 9.5C0.900391 14.7462 5.40042 19 10.9503 19C16.5002 19 21.0002 14.7462 21.0002 9.5C21.0002 4.25379 16.5002 0 10.9503 0ZM15.7801 7.16105C15.7868 7.26071 15.7868 7.36462 15.7868 7.46641C15.7868 10.5794 13.2788 14.1652 8.6958 14.1652C7.28253 14.1652 5.97245 13.7771 4.86876 13.1092C5.07065 13.1304 5.26358 13.1388 5.46996 13.1388C6.63646 13.1388 7.70875 12.7656 8.56344 12.1337C7.46872 12.1125 6.54898 11.4339 6.23492 10.5009C6.61852 10.5539 6.96398 10.5539 7.3588 10.4585C6.79512 10.3502 6.28847 10.0608 5.92493 9.63949C5.56139 9.21815 5.36337 8.69082 5.36452 8.1471V8.11741C5.69429 8.29342 6.08237 8.40156 6.48841 8.41641C6.14708 8.20137 5.86715 7.91004 5.67345 7.56825C5.47975 7.22647 5.37826 6.84478 5.37798 6.45703C5.37798 6.01808 5.49912 5.6173 5.71672 5.26953C6.34238 5.99759 7.1231 6.59305 8.00815 7.0172C8.8932 7.44136 9.86277 7.68472 10.8538 7.73147C10.5016 6.13047 11.7669 4.83482 13.2878 4.83482C14.0056 4.83482 14.6517 5.11897 15.1071 5.57701C15.6702 5.47734 16.2085 5.27801 16.6886 5.01083C16.5024 5.5558 16.1121 6.01596 15.5939 6.30647C16.0964 6.25558 16.5809 6.12411 17.0296 5.93962C16.6909 6.41038 16.2669 6.82812 15.7801 7.16105Z" fill="#2B7EDF"/>
</svg>
